# xmcd
#
# Track frame offsets:
# 150
# 42662
# 64692
# 84117
# 114942
# 174217
# 187307
# 230300
#
# Disc length: 3399 seconds
#
#
# Revision: 2
# Processed by: cddbd v1.5.1PL0 Copyright (c) Steve Scherf et al.
# Submitted via: FreeRIP 2.52 
#
DISCID=5e0d4508
DTITLE=Chopin - Andsnes - Virgin VCK 7 91501-2 [CD1)
DYEAR=1992
DGENRE=Classical
TTITLE0=Klaviersonate Nr. 1 c-moll op. 4 - I. Allegro maestoso
TTITLE1=Klaviersonate Nr. 1 c-moll op. 4 - II. Minuetto and Trio. Allegretto
TTITLE2=Klaviersonate Nr. 1 c-moll op. 4 - III. Larghetto
TTITLE3=Klaviersonate Nr. 1 c-moll op. 4 - IV. Finale. Presto
TTITLE4=Klaviersonate Nr. 3 h-moll op. 58 - I. Allegro maestoso
TTITLE5=Klaviersonate Nr. 3 h-moll op. 58 - II. Scherzo. Molto vivace
TTITLE6=Klaviersonate Nr. 3 h-moll op. 58 - III. Largo
TTITLE7=Klaviersonate Nr. 3 h-moll op. 58 - IV. Finale. Presto non tanto
EXTD=
EXTT0=
EXTT1=
EXTT2=
EXTT3=
EXTT4=
EXTT5=
EXTT6=
EXTT7=
PLAYORDER=
